<svg enable-background="new 0 0 800 800" viewBox="0 0 800 800" xmlns="http://www.w3.org/2000/svg" xmlns:xlink="http://www.w3.org/1999/xlink"><linearGradient id="a"><stop offset="0" stop-color="#7e5820"/><stop offset=".5484" stop-color="#ffd166"/><stop offset="1" stop-color="#3f2c10"/></linearGradient><linearGradient id="b" gradientTransform="matrix(1 0 0 -1 0 410)" gradientUnits="userSpaceOnUse" x1="268.4234" x2="531.3766" xlink:href="#a" y1="30.55" y2="30.55"/><linearGradient id="c" gradientTransform="matrix(1 0 0 -1 0 410)" gradientUnits="userSpaceOnUse" x1="279.8121" x2="519.9879" xlink:href="#a" y1="30.55" y2="30.55"/><linearGradient id="d"><stop offset="0" stop-color="#7e5820"/><stop offset=".5484" stop-color="#ffd166"/><stop offset=".5992" stop-color="#f9cc63"/><stop offset=".6665" stop-color="#e8be5c"/><stop offset=".743" stop-color="#cda650"/><stop offset=".8263" stop-color="#a6853e"/><stop offset=".9141" stop-color="#765b29"/><stop offset="1" stop-color="#3f2c10"/></linearGradient><linearGradient id="e" gradientTransform="matrix(1 0 0 -1 0 410)" gradientUnits="userSpaceOnUse" x1="214" x2="326.1" xlink:href="#d" y1="-98.2" y2="-98.2"/><linearGradient id="f" gradientTransform="matrix(1 0 0 -1 0 410)" gradientUnits="userSpaceOnUse" x1="473.9" x2="586" xlink:href="#d" y1="-96.6" y2="-96.6"/><linearGradient id="g" gradientTransform="matrix(1 0 0 -1 0 410)" gradientUnits="userSpaceOnUse" x1="271.2" x2="526.8" xlink:href="#d" y1="-68.0836" y2="-68.0836"/><linearGradient id="h" gradientTransform="matrix(1 0 0 -1 0 410)" gradientUnits="userSpaceOnUse" x1="350.7" x2="445.3" xlink:href="#a" y1="226.6853" y2="226.6853"/><linearGradient id="i" gradientTransform="matrix(-1 0 0 -1 -2525.8491 410)" gradientUnits="userSpaceOnUse" x1="-3003.9385" x2="-2851.0635" xlink:href="#d" y1="58.75" y2="58.75"/><linearGradient id="j" gradientTransform="matrix(1 0 0 -1 0 410)" gradientUnits="userSpaceOnUse" x1="369.0723" x2="396.543" xlink:href="#d" y1="213.5" y2="213.5"/><linearGradient id="k" gradientTransform="matrix(1 0 0 -1 0 410)" gradientUnits="userSpaceOnUse" x1="399.3999" x2="427.9787" xlink:href="#d" y1="213.45" y2="213.45"/><linearGradient id="l" gradientTransform="matrix(1 0 0 -1 0 410)" gradientUnits="userSpaceOnUse" x1="180.4308" x2="617.0205" xlink:href="#d" y1="-169.5631" y2="-169.5631"/><linearGradient id="m" gradientTransform="matrix(1 0 0 -1 0 410)" gradientUnits="userSpaceOnUse" x1="212.9" x2="219.125" xlink:href="#d" y1="-181.6" y2="-181.6"/><linearGradient id="n" gradientTransform="matrix(1 0 0 -1 0 410)" gradientUnits="userSpaceOnUse" x1="217" x2="228.3" xlink:href="#d" y1="-192.3" y2="-192.3"/><linearGradient id="o" gradientTransform="matrix(1 0 0 -1 0 410)" gradientUnits="userSpaceOnUse" x1="246.4" x2="256.7" xlink:href="#d" y1="-192.2499" y2="-192.2499"/><linearGradient id="p" gradientTransform="matrix(1 0 0 -1 0 410)" gradientUnits="userSpaceOnUse" x1="258.9" x2="266.2" xlink:href="#d" y1="-192.35" y2="-192.35"/><linearGradient id="q" gradientTransform="matrix(1 0 0 -1 0 410)" gradientUnits="userSpaceOnUse" x1="268" x2="274.7" xlink:href="#d" y1="-192.3501" y2="-192.3501"/><linearGradient id="r" gradientTransform="matrix(1 0 0 -1 0 410)" gradientUnits="userSpaceOnUse" x1="275.5" x2="286.8" xlink:href="#d" y1="-192.3" y2="-192.3"/><linearGradient id="s" gradientTransform="matrix(1 0 0 -1 0 410)" gradientUnits="userSpaceOnUse" x1="287.8" x2="299.9" xlink:href="#d" y1="-192.05" y2="-192.05"/><linearGradient id="t" gradientTransform="matrix(1 0 0 -1 0 410)" gradientUnits="userSpaceOnUse" x1="319.5" x2="331.5" xlink:href="#d" y1="-192.1501" y2="-192.1501"/><linearGradient id="u" gradientTransform="matrix(1 0 0 -1 0 410)" gradientUnits="userSpaceOnUse" x1="333.8" x2="345.7" xlink:href="#d" y1="-192.3" y2="-192.3"/><linearGradient id="v" gradientTransform="matrix(1 0 0 -1 0 410)" gradientUnits="userSpaceOnUse" x1="347.4999" x2="362.1" xlink:href="#d" y1="-192.1001" y2="-192.1001"/><linearGradient id="w" gradientTransform="matrix(1 0 0 -1 0 410)" gradientUnits="userSpaceOnUse" x1="363.7" x2="370.3" xlink:href="#d" y1="-192.3501" y2="-192.3501"/><linearGradient id="x" gradientTransform="matrix(1 0 0 -1 0 410)" gradientUnits="userSpaceOnUse" x1="390.6" x2="394.3" xlink:href="#d" y1="-192.1001" y2="-192.1001"/><linearGradient id="y" gradientTransform="matrix(1 0 0 -1 0 410)" gradientUnits="userSpaceOnUse" x1="397.2" x2="402.9151" xlink:href="#d" y1="-192.3" y2="-192.3"/><linearGradient id="z" gradientTransform="matrix(1 0 0 -1 0 410)" gradientUnits="userSpaceOnUse" x1="421.4" x2="432.7" xlink:href="#d" y1="-192.3" y2="-192.3"/><linearGradient id="A" gradientTransform="matrix(1 0 0 -1 0 410)" gradientUnits="userSpaceOnUse" x1="451.1" x2="463.1" xlink:href="#d" y1="-192.1501" y2="-192.1501"/><linearGradient id="B" gradientTransform="matrix(1 0 0 -1 0 410)" gradientUnits="userSpaceOnUse" x1="464.2" x2="475.3" xlink:href="#d" y1="-192.3" y2="-192.3"/><linearGradient id="C" gradientTransform="matrix(1 0 0 -1 0 410)" gradientUnits="userSpaceOnUse" x1="476.4001" x2="483.8001" xlink:href="#d" y1="-192.2502" y2="-192.2502"/><linearGradient id="D" gradientTransform="matrix(1 0 0 -1 0 410)" gradientUnits="userSpaceOnUse" x1="486.2001" x2="493.6001" xlink:href="#d" y1="-192.2502" y2="-192.2502"/><linearGradient id="E" gradientTransform="matrix(1 0 0 -1 0 410)" gradientUnits="userSpaceOnUse" x1="494.3" x2="504.8001" xlink:href="#d" y1="-192.0499" y2="-192.0499"/><linearGradient id="F" gradientTransform="matrix(1 0 0 -1 0 410)" gradientUnits="userSpaceOnUse" x1="523.4" x2="535.2" xlink:href="#d" y1="-192.1501" y2="-192.1501"/><linearGradient id="G" gradientTransform="matrix(1 0 0 -1 0 410)" gradientUnits="userSpaceOnUse" x1="537.5" x2="549.4" xlink:href="#d" y1="-192.3" y2="-192.3"/><linearGradient id="H" gradientTransform="matrix(1 0 0 -1 0 410)" gradientUnits="userSpaceOnUse" x1="551.1998" x2="565.8" xlink:href="#d" y1="-192.1001" y2="-192.1001"/><linearGradient id="I" gradientTransform="matrix(1 0 0 -1 0 410)" gradientUnits="userSpaceOnUse" x1="567.4001" x2="574" xlink:href="#d" y1="-192.3501" y2="-192.3501"/><linearGradient id="J" gradientTransform="matrix(1 0 0 -1 0 410)" gradientUnits="userSpaceOnUse" x1="576.4" x2="582.5" xlink:href="#d" y1="-181.55" y2="-181.55"/><linearGradient id="K" gradientUnits="userSpaceOnUse" x1="225.2466" x2="247.0957" xlink:href="#d" y1="565.7988" y2="565.7988"/><linearGradient id="L" gradientUnits="userSpaceOnUse" x1="250.4106" x2="268.8765" xlink:href="#d" y1="569.5063" y2="569.5063"/><linearGradient id="M" gradientUnits="userSpaceOnUse" x1="271.9023" x2="299.6909" xlink:href="#d" y1="569.3267" y2="569.3267"/><linearGradient id="N" gradientUnits="userSpaceOnUse" x1="303.3662" x2="321.8407" xlink:href="#d" y1="569.4521" y2="569.4521"/><linearGradient id="O" gradientUnits="userSpaceOnUse" x1="332.0213" x2="354.9507" xlink:href="#d" y1="565.7988" y2="565.7988"/><linearGradient id="P" gradientUnits="userSpaceOnUse" x1="355.5649" x2="374.8228" xlink:href="#d" y1="569.5425" y2="569.5425"/><linearGradient id="Q" gradientUnits="userSpaceOnUse" x1="378.5327" x2="392.499" xlink:href="#d" y1="569.2544" y2="569.2544"/><linearGradient id="R" gradientUnits="userSpaceOnUse" x1="393.3643" x2="411.8396" xlink:href="#d" y1="569.4521" y2="569.4521"/><linearGradient id="S" gradientUnits="userSpaceOnUse" x1="422.7393" x2="443.8643" xlink:href="#d" y1="565.7451" y2="565.7451"/><linearGradient id="T" gradientUnits="userSpaceOnUse" x1="445.9951" x2="459.9619" xlink:href="#d" y1="569.2544" y2="569.2544"/><linearGradient id="U" gradientUnits="userSpaceOnUse" x1="460.792" x2="479.2568" xlink:href="#d" y1="569.5063" y2="569.5063"/><linearGradient id="V" gradientUnits="userSpaceOnUse" x1="481.4561" x2="500.7129" xlink:href="#d" y1="565.9785" y2="565.9785"/><linearGradient id="W" gradientUnits="userSpaceOnUse" x1="504.2432" x2="521.8086" xlink:href="#d" y1="569.6323" y2="569.6323"/><linearGradient id="X" gradientUnits="userSpaceOnUse" x1="524.6553" x2="540.9258" xlink:href="#d" y1="569.5063" y2="569.5063"/><linearGradient id="Y" gradientUnits="userSpaceOnUse" x1="541.3594" x2="554.6777" xlink:href="#d" y1="567.0981" y2="567.0981"/><linearGradient id="Z" gradientUnits="userSpaceOnUse" x1="556.2627" x2="572.1006" xlink:href="#d" y1="569.5425" y2="569.5425"/><path d="m399.2 522.7-5.9-.5-.7-2.5c-.9-3.5-7.6-21.3-47.5-29.6-32.5-6.8-73-20.1-81.6-45.5-4.3-12.8 0-26.8 12.8-41.6 34.1-39.6 7.8-140.6 7.5-141.6l-1.2-4.7h25.8v-28.3h176.2v28.3h25.8l-1.3 4.7c-.3 1-26.6 102.1 7.5 141.6 12.8 14.8 17.1 28.8 12.8 41.6-8.6 25.3-49.1 38.7-81.6 45.5-39.9 8.3-46.6 26.1-47.5 29.6zm-107-258.5c5 21.1 22.4 105.9-10.2 143.7-10.9 12.7-14.8 24.2-11.3 34.3 5.8 17.1 32.8 31.5 76 40.5 31.2 6.5 44.3 18.8 49.7 27.3 5.5-8.6 18.6-20.8 49.7-27.3 43.2-9 70.2-23.4 76-40.5 3.4-10.1-.4-21.6-11.3-34.3-32.7-37.9-15.3-122.6-10.2-143.7h-23.6v-28.3h-161.2v28.3z"/><path d="m396.3 507.2-1.9-2c-10.1-10.6-25.9-18.2-47-22.5-41.8-8.7-67.7-22.1-73-37.9-2.9-8.6.6-18.9 10.6-30.4 30.5-35.4 19.2-109.1 12.9-139.2l-.6-3.1h22.6v-28.3h153.1v28.3h22.6l-.7 3.1c-6.3 30.1-17.6 103.9 12.9 139.2 9.9 11.5 13.5 21.7 10.6 30.4-5.3 15.7-31.3 29.2-73 37.9-21.1 4.4-36.9 12-47 22.5zm-92.7-229.9c6.5 32.6 16.3 104.6-14.7 140.5-8.7 10-11.9 18.6-9.6 25.3 4.6 13.5 30.4 26.4 69.2 34.5 20.9 4.4 37 11.8 47.8 22.2 10.9-10.3 26.9-17.8 47.8-22.1 38.7-8.1 64.6-20.9 69.2-34.5 2.3-6.8-.9-15.3-9.6-25.3-31-35.9-21.2-108-14.7-140.5h-21.4v-28.4h-71.3-10.4-60.9v28.3z"/><path d="m226.6 545.7c43.6-17.7 48.2-16.7 94.1-22.6-2.3-18.1-4.7-36.2-7-54.4-50.6 6.5-59.7 6.6-107.7 26.2 14.5 3.9 28.7 8.4 42.4 13.5-7.9 12.3-15.1 24.8-21.8 37.3z"/><path d="m314.5 474.7c.1.9.2 1.7.3 2.6-12.4 1.6-45.8 3.8-98.3 20.7-1.5-.4-2.9-.9-4.4-1.3 54.7-18 89.6-20.4 102.4-22z"/><path d="m231 537.6c.7-1.2 1.3-2.4 2-3.6 28.8-11.4 45.2-13.7 86.7-19v.3c.1.8.2 1.5.3 2.3-42.7 5.5-58.6 7.7-89 20z"/><path d="m331.4 523.4c.3.1-22.7-19.7-54.4-10 17-5.3 34.2-9.5 51.5-12.6.9 7.5 1.9 15 2.9 22.6z"/><path d="m566 544.1c-43.6-17.7-48.2-16.7-94.1-22.6 2.3-18.1 4.7-36.2 7-54.4 50.6 6.5 59.7 6.6 107.7 26.2-14.5 3.9-28.7 8.4-42.4 13.5 7.9 12.3 15.2 24.7 21.8 37.3z"/><path d="m478.2 473.1c-.1.9-.2 1.7-.3 2.6 12.4 1.6 45.8 3.8 98.3 20.7 1.5-.4 2.9-.9 4.4-1.3-54.7-18.1-89.6-20.4-102.4-22z"/><path d="m561.7 536c-.7-1.2-1.3-2.4-2-3.6-28.8-11.4-45.2-13.7-86.7-19v.3c-.1.8-.2 1.5-.3 2.3 42.6 5.5 58.5 7.7 89 20z"/><path d="m461 521.5c-.3.1 22.3-20.3 54.1-11.5-17.1-4.8-34.3-8.5-51.6-11.1-.8 7.6-1.7 15.1-2.5 22.6z"/><path d="m515.1 510c-78.4-22.1-160.3-20.9-238.3 3.4-4-17.6-8.1-35.3-12.1-52.9 85.6-26.7 175.5-28 261.5-3.8-3.7 17.8-7.4 35.6-11.1 53.3z"/><path d="m524.4 465c-84.8-23.9-173.5-22.6-257.9 3.7-.2-.8-.4-1.7-.6-2.5 84.8-26.5 173.8-27.7 259-3.7-.1.9-.3 1.7-.5 2.5z"/><path d="m516.3 504.6c-79.2-22.3-161.9-21.1-240.7 3.5-.2-.8-.4-1.7-.6-2.5 79.1-24.7 162.3-25.9 241.8-3.5-.2.8-.4 1.6-.5 2.5z"/><path d="m402.8 523.3-5.8-.5-.7-2.5c-.9-3.4-7.5-20.8-46.5-28.9-31.8-6.6-71.4-19.7-79.8-44.4-4.2-12.5 0-26.2 12.5-40.7 33.4-38.7 7.6-137.4 7.3-138.4l-1.2-4.6h25.2v-27.7h172.2v27.7h25.2l-1.2 4.6c-.3 1-26 99.8 7.3 138.4 12.5 14.5 16.7 28.2 12.5 40.7-8.4 24.8-48 37.8-79.8 44.4-39 8.1-45.5 25.5-46.4 28.9zm-104.6-252.7c4.9 20.7 21.9 103.5-10 140.5-10.7 12.4-14.4 23.7-11.1 33.5 5.7 16.8 32.1 30.8 74.3 39.6 30.5 6.3 43.3 18.4 48.6 26.7 5.3-8.4 18.2-20.4 48.6-26.7 42.2-8.8 68.6-22.9 74.3-39.6 3.3-9.9-.4-21.1-11.1-33.5-31.9-37-14.9-119.8-10-140.5h-23.1v-27.7h-157.5v27.7z" fill="url(#b)"/><path d="m400 508.2-1.8-1.9c-9.9-10.3-25.3-17.7-46-22-40.8-8.5-66.2-21.6-71.4-37-2.9-8.4.6-18.4 10.3-29.7 29.8-34.6 18.8-106.7 12.6-136.1l-.6-3.1h22v-27.7h149.6v27.7h22l-.6 3.1c-6.1 29.4-17.2 101.5 12.6 136.1 9.7 11.3 13.2 21.3 10.3 29.7-5.2 15.4-30.6 28.5-71.4 37-20.6 4.3-36.1 11.7-45.9 22zm-90.6-224.8c6.4 31.8 15.9 102.3-14.4 137.4-8.5 9.8-11.6 18.1-9.4 24.8 4.5 13.2 29.8 25.8 67.6 33.7 20.4 4.3 36.2 11.5 46.8 21.7 10.6-10.1 26.3-17.4 46.8-21.6 37.9-7.9 63.1-20.5 67.6-33.7 2.2-6.6-.9-14.9-9.4-24.8-30.3-35.1-20.7-105.5-14.4-137.4h-20.9v-27.7h-69.6-10.2-59.7v27.7h-20.8z" fill="url(#c)"/><path d="m234.1 545.8c42.6-17.3 47.1-16.3 92-22.1-2.3-17.7-4.6-35.4-6.8-53.1-49.4 6.4-58.4 6.5-105.3 25.6 14.2 3.9 28 8.3 41.4 13.2-7.7 11.9-14.8 24.1-21.3 36.4z" fill="url(#e)"/><path d="m320 476.3c0 .1 0 .1 0 0 .1.9.2 1.7.3 2.5-12.1 1.6-44.8 3.7-96.1 20.2-1.4-.4-2.9-.8-4.3-1.2 53.5-17.6 87.6-19.8 100.1-21.5z"/><path d="m238.4 537.9c.6-1.2 1.3-2.3 1.9-3.5 28.1-11.1 44.1-13.4 84.7-18.6v.3c.1.7.2 1.5.3 2.2-41.6 5.3-57.1 7.5-86.9 19.6z"/><path d="m336.5 523.9c.3.1-22.2-19.2-53.2-9.7 16.6-5.2 33.4-9.3 50.3-12.3 1 7.3 2 14.7 2.9 22z"/><path d="m565.9 544.2c-42.6-17.3-47.1-16.3-92-22.1 2.3-17.7 4.6-35.4 6.8-53.1 49.4 6.4 58.4 6.5 105.3 25.6-14.2 3.9-28 8.3-41.4 13.2 7.7 11.9 14.8 24.1 21.3 36.4z" fill="url(#f)"/><path d="m480 474.8c-.1.9-.2 1.7-.3 2.5 12.1 1.6 44.8 3.7 96.1 20.2 1.4-.4 2.9-.8 4.3-1.2-53.5-17.7-87.6-19.9-100.1-21.5z"/><path d="m561.6 536.3c-.6-1.2-1.3-2.3-1.9-3.5-28.1-11.1-44.1-13.4-84.7-18.6v.3c-.1.7-.2 1.5-.3 2.2 41.6 5.3 57.1 7.5 86.9 19.6z"/><path d="m463.2 522.1c-.3.1 21.8-19.9 52.9-11.2-16.7-4.7-33.5-8.3-50.5-10.9-.8 7.4-1.6 14.8-2.4 22.1z"/><path d="m516.1 510.9c-76.6-21.6-156.7-20.5-233 3.3-4-17.2-7.9-34.5-11.9-51.7 83.6-26.1 171.5-27.3 255.6-3.7-3.5 17.4-7.1 34.7-10.7 52.1z" fill="url(#g)"/><path d="m525.2 466.9c-82.9-23.3-169.6-22.1-252.1 3.6-.2-.8-.4-1.6-.6-2.4 82.8-25.9 169.9-27.1 253.1-3.6 0 .8-.2 1.6-.4 2.4z"/><path d="m517.2 505.5c-77.4-21.8-158.3-20.7-235.3 3.4-.2-.8-.4-1.6-.6-2.4 77.3-24.1 158.6-25.3 236.3-3.4 0 .8-.2 1.6-.4 2.4z"/><path d="m402.8 523.3-5.8-.5-.7-2.5c-.9-3.4-7.5-20.8-46.5-28.9-31.8-6.6-71.4-19.7-79.8-44.4-4.2-12.5 0-26.2 12.5-40.7 33.4-38.7 7.6-137.4 7.3-138.4l-1.2-4.6h25.2v-27.7h172.2v27.7h25.2l-1.2 4.6c-.3 1-26 99.8 7.3 138.4 12.5 14.5 16.7 28.2 12.5 40.7-8.4 24.8-48 37.8-79.8 44.4-39 8.1-45.5 25.5-46.4 28.9zm-104.6-252.7c4.9 20.7 21.9 103.5-10 140.5-10.7 12.4-14.4 23.7-11.1 33.5 5.7 16.8 32.1 30.8 74.3 39.6 30.5 6.3 43.3 18.4 48.6 26.7 5.3-8.4 18.2-20.4 48.6-26.7 42.2-8.8 68.6-22.9 74.3-39.6 3.3-9.9-.4-21.1-11.1-33.5-31.9-37-14.9-119.8-10-140.5h-23.1v-27.7h-157.5v27.7z" fill="url(#b)"/><path d="m400 508.2-1.8-1.9c-9.9-10.3-25.3-17.7-46-22-40.8-8.5-66.2-21.6-71.4-37-2.9-8.4.6-18.4 10.3-29.7 29.8-34.6 18.8-106.7 12.6-136.1l-.6-3.1h22v-27.7h149.6v27.7h22l-.6 3.1c-6.1 29.4-17.2 101.5 12.6 136.1 9.7 11.3 13.2 21.3 10.3 29.7-5.2 15.4-30.6 28.5-71.4 37-20.6 4.3-36.1 11.7-45.9 22zm-90.6-224.8c6.4 31.8 15.9 102.3-14.4 137.4-8.5 9.8-11.6 18.1-9.4 24.8 4.5 13.2 29.8 25.8 67.6 33.7 20.4 4.3 36.2 11.5 46.8 21.7 10.6-10.1 26.3-17.4 46.8-21.6 37.9-7.9 63.1-20.5 67.6-33.7 2.2-6.6-.9-14.9-9.4-24.8-30.3-35.1-20.7-105.5-14.4-137.4h-20.9v-27.7h-69.6-10.2-59.7v27.7h-20.8z" fill="url(#c)"/><path d="m234.1 545.8c42.6-17.3 47.1-16.3 92-22.1-2.3-17.7-4.6-35.4-6.8-53.1-49.4 6.4-58.4 6.5-105.3 25.6 14.2 3.9 28 8.3 41.4 13.2-7.7 11.9-14.8 24.1-21.3 36.4z" fill="url(#e)"/><path d="m320 476.3c0 .1 0 .1 0 0 .1.9.2 1.7.3 2.5-12.1 1.6-44.8 3.7-96.1 20.2-1.4-.4-2.9-.8-4.3-1.2 53.5-17.6 87.6-19.8 100.1-21.5z"/><path d="m238.4 537.9c.6-1.2 1.3-2.3 1.9-3.5 28.1-11.1 44.1-13.4 84.7-18.6v.3c.1.7.2 1.5.3 2.2-41.6 5.3-57.1 7.5-86.9 19.6z"/><path d="m336.5 523.9c.3.1-22.2-19.2-53.2-9.7 16.6-5.2 33.4-9.3 50.3-12.3 1 7.3 2 14.7 2.9 22z"/><path d="m565.9 544.2c-42.6-17.3-47.1-16.3-92-22.1 2.3-17.7 4.6-35.4 6.8-53.1 49.4 6.4 58.4 6.5 105.3 25.6-14.2 3.9-28 8.3-41.4 13.2 7.7 11.9 14.8 24.1 21.3 36.4z" fill="url(#f)"/><path d="m480 474.8c-.1.9-.2 1.7-.3 2.5 12.1 1.6 44.8 3.7 96.1 20.2 1.4-.4 2.9-.8 4.3-1.2-53.5-17.7-87.6-19.9-100.1-21.5z"/><path d="m561.6 536.3c-.6-1.2-1.3-2.3-1.9-3.5-28.1-11.1-44.1-13.4-84.7-18.6v.3c-.1.7-.2 1.5-.3 2.2 41.6 5.3 57.1 7.5 86.9 19.6z"/><path d="m463.2 522.1c-.3.1 21.8-19.9 52.9-11.2-16.7-4.7-33.5-8.3-50.5-10.9-.8 7.4-1.6 14.8-2.4 22.1z"/><path d="m516.1 510.9c-76.6-21.6-156.7-20.5-233 3.3-4-17.2-7.9-34.5-11.9-51.7 83.6-26.1 171.5-27.3 255.6-3.7-3.5 17.4-7.1 34.7-10.7 52.1z" fill="url(#g)"/><path d="m525.2 466.9c-82.9-23.3-169.6-22.1-252.1 3.6-.2-.8-.4-1.6-.6-2.4 82.8-25.9 169.9-27.1 253.1-3.6 0 .8-.2 1.6-.4 2.4z"/><path d="m517.2 505.5c-77.4-21.8-158.3-20.7-235.3 3.4-.2-.8-.4-1.6-.6-2.4 77.3-24.1 158.6-25.3 236.3-3.4 0 .8-.2 1.6-.4 2.4z"/><path d="m444.3 153.9c0-7.2-3.1-13.1-6.8-13.1-3.8 0-6.8 5.8-6.8 13.1 0 4.4 1.1 8.2 2.9 10.7-1.2 3.9-3.4 7.4-7.5 7.8l-12.8-20.7c-1-1.7-2.5-1.7-3.5 0l-12.8 21-12.8-22.6c-1-1.8-2.6-1.8-3.7 0l-12.7 22.3c-4.1-.5-6.2-3.8-7.4-7.8 1.7-2.3 2.9-6.2 2.9-10.7 0-7.2-3.1-13.1-6.8-13.1-3.8 0-6.8 5.8-6.8 13.1 0 5.4 1.7 9.9 4.1 12v43.8c0 1 0 1.9.3 2.7.5 1.8 1.4 3 2.4 3h.1c.3 0 .6-.1.9-.3 12.7-9.2 26 13 39.6 13s26.9-22.2 39.5-13c.3.2.5.3.8.3h.2c1.5 0 2.7-2.3 2.7-5.2 0-.2 0-.4 0-.6v-43.6c2.3-2.2 4-6.9 4-12.1zm-9.5 48.8c-10.8 21.2-61.9 22-75.6 0v-25.4c2.3 3.3 5.5 5.4 9.6 5.4.7 0 1.3-.5 1.8-1.4l11.7-20.5 11.4 20.2c.1.2.2.3.3.5l1.4 1.8c.9 1.2 2.1 1.2 3 0l1.4-1.8c.1-.1.2-.2.3-.4l11.5-18.8 11.8 19.1c.5.8 1.1 1.3 1.8 1.3 4.2 0 7.3-2.1 9.6-5.4z"/><path d="m445.3 153.5c0-7.1-3.1-12.8-6.8-12.8-3.8 0-6.8 5.7-6.8 12.8 0 4.2 1.1 8 2.9 10.4-1.2 3.9-3.4 7.2-7.5 7.6l-12.8-20.2c-1-1.6-2.5-1.6-3.5 0l-12.8 20.5-12.8-22.1c-1-1.8-2.6-1.8-3.7 0l-12.7 21.8c-4.1-.4-6.2-3.8-7.4-7.6 1.7-2.3 2.9-6.1 2.9-10.4 0-7.1-3.1-12.8-6.8-12.8-3.8 0-6.8 5.7-6.8 12.8 0 5.3 1.7 9.7 4.1 11.7v42.8c0 .8 0 1.8.3 2.6.5 1.8 1.4 2.9 2.4 2.9h.1c.3 0 .6-.1.9-.3 12.7-9 26 12.7 39.6 12.7s26.9-21.7 39.5-12.7c.3.2.5.3.8.3h.2c1.5 0 2.7-2.2 2.7-5.1 0-.2 0-.4 0-.6v-42.5c2.3-2 4-6.6 4-11.8zm-9.5 47.6c-10.8 20.6-61.9 21.5-75.6 0v-24.7c2.3 3.3 5.5 5.3 9.6 5.3.7 0 1.3-.5 1.8-1.4l11.7-20 11.4 19.7c.1.2.2.3.3.5l2.9 3.6 3-3.7c0-.1.1-.1.1-.2l11.5-18.5 11.8 18.7c.5.7 1.1 1.2 1.8 1.2 4.2 0 7.3-2 9.6-5.3v24.9z" fill="url(#h)"/><path d="m375.9 291.9s-13.8 3.3-23.8 10.7c-6.9 5.2-13.1 11.6-18.3 19l-2.8 3.9c-2.9 4.2-4.2 9.1-3.6 14.1l2.8 22.6c1 8.2 5.9 15.5 13.4 19.9l37.2 21.9-19-18.2c-3.8-3.7-6.2-8.5-6.7-13.6l-2.5-24.4c-.6-5.8 1.7-11.6 6.2-15.7l6.4-5.8s-7.8 9.9-5.9 21.2c.6 3.7 2.2 14.9 2.2 14.9 1.4 9.4 3.9 17.2 11.9 23l25.4 18.1c8.5 6.1 16.1 13.1 22.7 21.1l14.3 17.3-11.7-25.6c-4.7-10.3-11.2-19.8-19.3-28.2l-13.8-16c-5.9-6.1-7.7-25.2-7.7-25.2s5.3 16.7 10 21.5c0 0 19 19.3 22.1 22.8 10 11.2 21.9 37.8 21.9 37.8s-2.4-25.4-12.9-45c8.3 6.2 17.8 26.4 17.8 26.4s-.9-26.2-20-46.4c-3.2-3.4-6.1-7.3-8.4-10.8l10 8.5c-.2-1-.1-3.6 0-5.9s2.5-4 4.9-3.6c1.9.3 4.2 1 6.6 2.2 6 3-.5 9.4-.5 9.4 5.1 2.2 8.8-2.7 8.8-2.7v2.9c7.5-4.6 8.6-14.6 8.6-14.6-.5 2.5-4 3.8-4 3.8l-11.6-10.2c11.6-11.3 20.6-2.7 20.6-2.7.5 2.2-2.6 4.2-2.6 4.2 7.6-.4 19.8-14.1 19.8-14.1s1.2-1.7-5.2-4c-3.7-2.8-14.9-11.3-14.9-11.3l-4.6-12.1-18-10.1c-3-10.7-10.2-20.2-20.4-25.9-7.1-4-23.1-6.4-23.1-6.4l11.8 10.5c-18.3-9.7-46.1-5.9-46.1-5.9l13.4 7.2c-9 .8-19.5 3.9-26.6 11.1-22.3 22.4-18.9 49.1-18.9 49.1 3.5-11.4 17.4-30.1 34.3-35.6 6.4-2.1 13.2-3.9 19.8-5.1zm59.9 17.5c7.5-2.7 12.4 0 12.4 0l-2.3.8.9 3.8c-8.3-1.7-11-4.6-11-4.6z" fill="#454140"/><path d="m379.6 291.9s-13.8 3.3-23.8 10.7c-6.9 5.2-13.1 11.6-18.3 19l-2.8 3.9c-2.9 4.2-4.2 9.1-3.6 14.1l2.8 22.6c1 8.2 5.9 15.5 13.4 19.9l37.2 21.9-19-18.2c-3.8-3.7-6.2-8.5-6.7-13.6l-2.5-24.4c-.6-5.8 1.7-11.6 6.2-15.7l6.4-5.8s-7.8 9.9-5.9 21.2c.6 3.7 2.2 14.9 2.2 14.9 1.4 9.4 3.9 17.2 11.9 23l25.4 18.1c8.5 6.1 16.1 13.1 22.7 21.1l14.3 17.3-11.7-25.6c-4.7-10.3-11.2-19.8-19.3-28.2l-13.9-16.1c-5.9-6.1-7.7-25.2-7.7-25.2s5.3 16.7 10 21.5c0 0 19 19.3 22.1 22.8 10 11.2 21.9 37.8 21.9 37.8s-2.4-25.4-12.9-45c8.3 6.2 17.8 26.4 17.8 26.4s-.9-26.2-20-46.4c-3.2-3.4-6.1-7.3-8.4-10.8l10 8.5c-.2-1-.1-3.6 0-5.9s2.5-4 4.9-3.6c1.9.3 4.2 1 6.6 2.2 6 3-.5 9.4-.5 9.4 5.1 2.2 8.8-2.7 8.8-2.7v2.9c7.5-4.6 8.6-14.6 8.6-14.6-.5 2.5-4 3.8-4 3.8l-11.6-10.1c11.6-11.3 20.6-2.7 20.6-2.7.5 2.2-2.6 4.2-2.6 4.2 7.6-.4 19.8-14.1 19.8-14.1s1.2-1.7-5.2-4c-3.7-2.8-14.9-11.3-14.9-11.3l-4.6-12.1-18-10.1c-3-10.7-10.2-20.2-20.4-25.9-7.1-4-23.1-6.4-23.1-6.4l11.8 10.5c-18.3-9.7-46.1-5.9-46.1-5.9l13.4 7.2c-9 .8-19.5 3.9-26.6 11.1-22.3 22.4-18.9 49.1-18.9 49.1 3.5-11.4 17.4-30.1 34.3-35.6 6.5-2.1 13.3-3.9 19.9-5.1zm59.9 17.5c7.5-2.7 12.4 0 12.4 0l-2.3.8.9 3.8c-8.4-1.7-11-4.6-11-4.6z" fill="url(#i)"/><path d="m324.2 467.6c-.1-.3-.1-.4-.2-.7 4.5-1.1 6.7-1.6 11.3-2.5.1.3.1.4.2.7-.2 0-.3.1-.5.1-.8.2-1.5.4-1.9.6s-.7.5-.8.9-.1.9 0 1.5c1.1 5.3 1.7 7.9 2.9 13.2.1.5.3.9.6 1.1s.7.4 1.2.4c.6 0 1.3-.1 2.3-.3.8-.2 1.5-.4 2.2-.6.7-.3 1.3-.6 1.9-1s1.2-1 1.8-1.7 1.2-1.5 1.8-2.5c.6-.1.9-.2 1.4-.3-.5 2.1-.7 3.2-1.2 5.3-7.5 1.4-11.2 2.1-18.6 3.9-.1-.3-.1-.4-.2-.7h.2c.9-.2 1.6-.5 2-.7.4-.3.7-.6.7-.9.1-.4.1-.8-.1-1.4-1.2-5.1-1.8-7.7-2.9-12.8-.2-.7-.3-1.2-.6-1.5-.2-.3-.6-.5-1.2-.5-.4 0-1.2.1-2.3.4zm4.6 1.1c1.3 5.5 1.9 8.3 3.1 13.8.1.4.1.8 0 1.1s-.3.6-.7.8h.3.3c1-.2 1.4-1 1.1-2.3-1.2-5.2-1.7-7.8-2.9-13-.2-.9-.4-1.6-.7-2s-.8-.5-1.6-.3c-.2 0-.3.1-.5.1.5.1.8.3 1.1.5.2.2.3.6.5 1.3zm13.9 13.3c1.1-.2 1.7-.3 2.8-.5.3-1.2.5-1.8.8-2.9-.5.7-1 1.4-1.6 1.9-.5.5-1.2 1-2 1.5z"/><path d="m356.4 470.6c.4 2.4.5 3.6.9 6 .1.7.2 1.2.4 1.5.2.4.4.6.7.7s.7.2 1.3.2c.5 0 1.3-.1 2.2-.2 1.1-.2 2.1-.4 3-.9.9-.4 1.7-1 2.4-1.7s1.5-1.6 2.4-2.7c.5-.1.8-.1 1.3-.1-.6 2.1-.9 3.1-1.4 5.2-7.6.9-11.5 1.4-19 2.7-.1-.3-.1-.4-.1-.7.9-.2 1.6-.4 2.1-.6s.8-.5.9-.8c.2-.3.2-.7.1-1.3-.9-5.4-1.3-8.1-2.2-13.5-.1-.6-.3-1.1-.5-1.3-.2-.3-.6-.4-1.1-.4s-1.3 0-2.4.2c-.1-.3-.1-.4-.1-.7 7.7-1.3 11.6-1.9 19.4-2.8 1 1.7 1.5 2.5 2.5 4.2-.5.1-.7.1-1.2.1-.7-.6-1.5-1.1-2.5-1.6-1-.4-2-.8-3.2-.9-1.2-.2-2.4-.2-3.6 0-1 .1-1.7.3-2.2.6s-.8.5-.9.9c-.1.3-.1.8-.1 1.3.4 2.4.5 3.6.9 6 1.3-.2 1.9-.3 3.2-.5 2.8-.4 4.1-1.7 3.8-3.9.5-.1.7-.1 1.1-.1.4 2.9.5 4.4.9 7.3-.4 0-.6.1-1 .1-.3-1.1-.7-1.9-1.4-2.3s-1.6-.6-2.8-.4c-1.5.1-2.3.2-3.8.4zm-4.5-6.1c.8 5.3 1.3 7.9 2.1 13.2.1.7.1 1.2 0 1.5s-.3.6-.7.9c.9-.1 1.4-.4 1.6-.9.2-.4.2-1.1.1-1.9-.8-5.3-1.2-7.9-2.1-13.2-.1-.8-.4-1.3-.7-1.5-.4-.2-.9-.2-1.7-.1.4.1.8.3 1 .6.2.2.3.7.4 1.4zm11.9 6c-.1-1.1-.2-1.6-.3-2.7-.3.7-1 1.2-2.1 1.6.6.1 1.1.2 1.5.3.3.2.6.5.9.8zm1.4-10.2c-1.2.1-1.8.2-3 .4.8.1 1.6.3 2.3.6.7.2 1.4.6 2.1.9-.5-.8-.8-1.2-1.4-1.9zm2.8 17.8c.3-1 .5-1.5.8-2.5-.5.7-1.1 1.2-1.5 1.5-.5.3-1.1.8-2 1.3 1.1-.1 1.6-.2 2.7-.3z"/><path d="m372.6 468.4c-.1-.8-.1-1.6 0-2.4s.3-1.5.6-2.2.7-1.4 1.2-2 1-1.2 1.7-1.7 1.4-1 2.2-1.4 1.7-.7 2.6-.9 2-.4 3.1-.4c1.8-.1 3.6 0 5.1.5 1.6.4 2.9 1.1 4 2s1.9 1.9 2.6 3.1c.6 1.2.9 2.5 1 3.8 0 1.4-.2 2.8-.8 4.1s-1.4 2.4-2.5 3.4-2.3 1.7-3.8 2.3c-1.4.6-3 .9-4.7 1-1.6.1-3.1 0-4.5-.4s-2.7-1-3.8-1.8-2-1.8-2.7-3-1.2-2.5-1.3-4zm5.2-9c-1.7 1.1-3 2.4-3.8 4-.8 1.5-1.1 3.2-.9 5.1.1 1.5.6 2.9 1.3 4.1s1.7 2.2 2.9 3 2.7 1.4 4.4 1.7c-2.1-.8-3.8-1.9-5.2-3.4s-2.2-3.4-2.4-5.7c-.1-1.2 0-2.2.2-3.2s.7-1.9 1.2-2.8c.6-1 1.4-1.9 2.3-2.8zm-.9 7.2c.1 1.6.5 3.1 1 4.4s1.1 2.4 1.9 3.3 1.7 1.6 2.7 2 2 .6 3.1.6c.9-.1 1.8-.3 2.6-.7s1.5-1 2.1-1.7 1.1-1.6 1.4-2.7.4-2.3.4-3.7c-.1-1.5-.3-2.9-.8-4.2s-1.1-2.3-1.9-3.2-1.7-1.5-2.8-1.9c-1-.4-2.2-.6-3.3-.5-1 .1-1.9.3-2.8.8-.8.4-1.6 1-2.1 1.8-.6.7-1 1.6-1.2 2.6-.3.8-.4 1.9-.3 3.1zm9.5-8.4c1.3.5 2.4 1.2 3.3 2.1s1.6 2.1 2.1 3.4.8 2.8.8 4.4c.1 1.5-.1 2.9-.6 4-.4 1.2-1.1 2.2-1.9 3.1.8-.6 1.5-1.3 2-2s.9-1.6 1.1-2.5.3-2 .3-3.1c-.1-1.7-.4-3.2-1-4.5-.6-1.4-1.4-2.5-2.5-3.3-1-.9-2.2-1.4-3.6-1.6z"/><path d="m407.5 457.8c0-.3 0-.5 0-.8 4.6 0 6.9 0 11.5.2v.8c-.2 0-.3 0-.5 0-.9 0-1.5 0-2 .1s-.8.3-1 .7c-.2.3-.3.8-.3 1.5-.1 5.4-.2 8.1-.3 13.5 0 .5.1.9.3 1.2s.6.5 1.1.7 1.3.2 2.2.3c.8 0 1.6 0 2.3-.1s1.4-.3 2.1-.5 1.4-.7 2.2-1.2 1.5-1.2 2.3-2c.6 0 .9.1 1.5.1-1 1.9-1.4 2.9-2.4 4.8-7.5-.4-11.3-.5-18.9-.6 0-.3 0-.5 0-.8h.2c.9 0 1.6-.1 2.1-.2.4-.1.8-.4.9-.7.2-.3.3-.8.3-1.4.1-5.2.1-7.9.2-13.1 0-.7-.1-1.2-.2-1.6s-.5-.6-1-.8-1.5-.1-2.6-.1zm4.1 2.1c-.1 5.7-.1 8.5-.2 14.2 0 .5-.1.8-.3 1s-.5.5-.8.6h.3.3c1.1 0 1.6-.7 1.6-2 .1-5.3.1-8 .2-13.3 0-.9-.1-1.6-.2-2.1-.2-.5-.6-.7-1.5-.7-.2 0-.3 0-.5 0 .4.2.8.5.9.7.2.5.2 1 .2 1.6zm10.4 16.2c1.1.1 1.7.1 2.9.1.6-1.1.9-1.6 1.5-2.6-.6.6-1.3 1.1-2 1.5s-1.5.7-2.4 1z"/><path d="m431.7 457.9c4.4.3 6.6.5 11 .9 0 .3 0 .5-.1.8-1-.1-1.8 0-2.4.1-.6.2-.9.5-1 1.2-.1.4-.1.7-.1.9s-.1.3-.1.3c-.5 5.1-.7 7.6-1.2 12.7 0 .5 0 1 .1 1.3s.3.6.5.7c.2.2.5.3.8.4s.9.2 1.6.3c0 .3 0 .5-.1.8-4.1-.4-6.2-.6-10.4-.9 0-.3 0-.5.1-.8.9.1 1.6 0 2.1-.1s.8-.4 1-.7.3-.9.3-1.7c.4-4.9.6-7.4 1-12.3.1-.7.1-1.3 0-1.6-.1-.4-.2-.6-.4-.8s-.5-.3-.9-.4-1-.2-1.9-.3c.1-.4.1-.5.1-.8zm3.7 3.5c-.4 5.5-.7 8.2-1.1 13.7 0 .5-.2.8-.4 1s-.5.4-1 .6c.7 0 1.2 0 1.7-.2.4-.1.7-.5.7-1.1.5-5.9.7-8.8 1.2-14.6.1-.6-.1-1.1-.3-1.4-.3-.3-.9-.5-1.8-.6.8.4 1.2 1.2 1.1 2.2v.2c-.1.1-.1.2-.1.2z"/><path d="m445.3 459.1c7.7.8 11.5 1.3 19.1 2.6.5 1.9.8 2.9 1.3 4.8-.5-.1-.7-.1-1.2-.2-.5-.7-1.2-1.4-1.9-2.1-.7-.6-1.4-1.2-2.2-1.6-.7-.4-1.4-.7-2.1-.9-.6-.2-1.3-.3-1.9-.4-1.1-.2-1.9-.2-2.4-.1s-.8.4-1 .8-.3 1.2-.5 2.3c-.2 1.9-.4 2.8-.6 4.7 1.2.2 1.7.2 2.9.4 1.5.2 2.6.1 3.5-.4.8-.4 1.4-1.2 1.6-2.4.5.1.7.1 1.2.2-.5 2.9-.7 4.4-1.1 7.3-.5-.1-.7-.1-1.1-.2 0-.9 0-1.6-.3-2.1-.2-.5-.6-.8-1.2-1.1-.6-.2-1.5-.4-2.6-.6s-1.7-.2-2.8-.4c-.4 2.7-.5 4-.9 6.7-.1.8.1 1.4.5 1.8.5.4 1.3.7 2.6.8.2 0 .2 0 .4.1 0 .3-.1.5-.1.8-4.4-.6-6.6-.9-11-1.4 0-.3 0-.5.1-.8 1 .1 1.8.1 2.2 0 .5-.1.8-.3 1-.7s.3-.9.4-1.7c.6-4.8.9-7.2 1.4-12 0-.3 0-.4.1-.7.1-.9 0-1.5-.4-2-.3-.4-1.2-.7-2.5-.9-.1 0-.1 0-.2 0s-.1 0-.2 0c-.1-.2-.1-.3-.1-.6zm3.1 17.5c.6-5.2 1-7.8 1.6-12.9.1-.9.2-1.6.1-2.1 0-.4-.2-.8-.5-1s-.8-.4-1.6-.4c.6.2.9.5 1 .9s.1 1 0 1.9c-.6 5.1-.9 7.7-1.5 12.9-.1.6-.1 1-.2 1.3s-.2.5-.4.6-.4.3-.8.4c.8.1 1.3 0 1.7-.2.3-.4.6-.8.6-1.4zm10.5-4.9c.2-1.2.3-1.7.4-2.9-.3.3-.6.6-1 .7-.4.2-.9.3-1.5.4.6.2 1.1.5 1.4.7.4.4.6.7.7 1.1zm5-7c-.5-1-.7-1.5-1.2-2.5-1.2-.2-1.8-.3-3.1-.5.6.3 1.2.6 1.7.9s.9.6 1.2.9c.4.3.8.7 1.4 1.2z"/><path d="m473.7 473.4c-.5 2.4-.7 3.6-1.2 6-.1.7-.2 1.2-.1 1.6 0 .4.2.7.4.9.3.2.6.4 1.2.6.5.2 1.3.3 2.2.5 1.1.2 2.2.3 3.1.2 1-.1 1.9-.4 2.8-.8s2-1 3.2-1.7c.5.1.7.2 1.2.3-1.2 1.8-1.9 2.6-3.1 4.4-7.5-1.8-11.3-2.5-18.9-3.9.1-.3.1-.4.1-.7.9.1 1.6.2 2.1.2s.9-.2 1.1-.4c.3-.2.4-.6.5-1.2 1-5.4 1.5-8.1 2.5-13.5.1-.6.1-1.1 0-1.4s-.4-.6-.9-.8c-.4-.2-1.2-.4-2.3-.6.1-.3.1-.4.1-.7 7.7 1.3 11.6 2.1 19.2 3.9.4 1.9.6 2.9.9 4.8-.5-.1-.7-.2-1.1-.3-.5-.8-1.1-1.6-1.9-2.3s-1.7-1.4-2.7-2-2.2-1-3.4-1.2c-1-.2-1.7-.3-2.3-.2-.5.1-.9.3-1.1.5-.2.3-.4.7-.5 1.2-.5 2.4-.7 3.6-1.2 5.9 1.3.3 1.9.4 3.2.6 2.8.6 4.4-.2 4.9-2.4.4.1.7.1 1.1.2-.6 2.9-1 4.3-1.6 7.2-.4-.1-.6-.1-1-.2.1-1.1-.1-2-.5-2.6-.5-.6-1.3-1.1-2.6-1.3-1.2-.4-1.9-.5-3.4-.8zm-2.2-7.3c-1 5.3-1.5 7.9-2.5 13.2-.1.7-.3 1.1-.5 1.4s-.5.5-.9.6c.9.1 1.4.1 1.8-.3.3-.3.6-.9.7-1.8 1-5.3 1.5-7.9 2.5-13.2.1-.8.1-1.3-.2-1.6s-.8-.5-1.6-.7c.4.3.6.6.7.9s.1.8 0 1.5zm9.2 9.7c.2-1.1.3-1.6.6-2.6-.5.5-1.4.8-2.5.8.6.3 1 .5 1.3.8.2.2.4.5.6 1zm4.7-9.2c-1.2-.3-1.8-.4-2.9-.7.8.4 1.4.8 2 1.3s1.1 1 1.7 1.6c-.3-.9-.4-1.3-.8-2.2zm-3.3 17.7c.6-.8 1-1.3 1.6-2.1-.7.4-1.4.7-1.9.9-.6.2-1.3.4-2.3.6 1 .2 1.6.3 2.6.6z"/><path d="m370.1 186c0-.4.3-.8.8-.8h14.1c.4 0 .8.3.8.8 0 .4-.3.8-.8.8h-1.9c-.8 0-1.3.1-1.6.4s-.5.6-.5 1.1v18.4c0 .7.1 1.2.4 1.4s1 .3 2 .3h4.4c1.6 0 3.2-.6 4.6-1.9 1.3-1.2 2.3-3 3.1-5.5.1-.3.4-.6.7-.6h.4c.5 0 .8.4.8.8l-.6 7.9c0 .4-.4.7-.8.7h-25.3c-.4 0-.8-.3-.8-.8 0-.4.3-.8.8-.8h1.9c.6 0 1-.1 1.3-.4.3-.2.5-.6.5-1v-19c0-.5-.2-.8-.5-1s-.8-.3-1.6-.3h-1.6c-.3.3-.6 0-.6-.5z"/><path d="m400.4 185.2h15.2c2.8 0 5.2.5 7.3 1.5s3.7 2.5 4.9 4.4 1.8 4 1.8 6.4c0 2.5-.6 4.6-1.7 6.4s-2.7 3.3-4.8 4.4-4.4 1.6-6.9 1.6h-15.7v-1.6h2.3c.6 0 1-.1 1.3-.4s.5-.7.5-1.1v-18.7c0-.5-.2-.9-.5-1.1s-.8-.3-1.6-.3h-2zm13.9 23.3c1.8 0 3.3-.4 4.6-1.2s2.3-1.8 3-3.2c.6-1.3.9-3.4.9-6.2 0-3-.4-5.2-1-6.8-.7-1.6-1.7-2.7-2.9-3.4s-3-1-5.4-1c-1.3 0-2.1.1-2.4.3s-.5.5-.5 1v18.8c0 .6.1 1 .4 1.2s.6.4 1.3.4z"/><path d="m369.1 185c0-.4.3-.8.8-.8h14.1c.4 0 .8.3.8.8 0 .4-.3.8-.8.8h-1.9c-.8 0-1.3.1-1.6.4s-.5.6-.5 1.1v18.4c0 .7.1 1.2.4 1.4s1 .3 2 .3h4.4c1.6 0 3.2-.6 4.6-1.9 1.3-1.2 2.3-3 3.1-5.5.1-.3.4-.6.7-.6h.4c.5 0 .8.4.8.8l-.6 7.9c0 .4-.4.7-.8.7h-25.3c-.4 0-.8-.3-.8-.8 0-.4.3-.8.8-.8h1.9c.6 0 1-.1 1.3-.4.3-.2.5-.6.5-1v-19c0-.5-.2-.8-.5-1s-.8-.3-1.6-.3h-1.6c-.3.3-.6 0-.6-.5z" fill="url(#j)"/><path d="m399.4 184.2h14.9c2.7 0 5.1.5 7.2 1.5s3.6 2.5 4.8 4.4 1.7 4 1.7 6.4c0 2.5-.5 4.6-1.6 6.4s-2.6 3.3-4.7 4.4-4.4 1.6-6.8 1.6h-15.4v-1.6h2.3c.5 0 1-.1 1.3-.4s.5-.7.5-1.1v-18.7c0-.5-.2-.9-.5-1.1s-.8-.3-1.5-.3h-2zm13.6 23.3c1.7 0 3.3-.4 4.5-1.2 1.3-.8 2.3-1.8 2.9-3.2.5-1.3.9-3.4.9-6.2 0-3-.4-5.2-1-6.8-.7-1.6-1.6-2.7-2.8-3.4s-2.9-1-5.3-1c-1.3 0-2.1.1-2.4.3s-.5.5-.5 1v18.8c0 .6.1 1 .4 1.2s.6.4 1.3.4z" fill="url(#k)"/><path d="m616.8 580.7c-.4-1.9-1.6-3.5-3.3-4.6-2-1.3-4.5-1.7-6.9-1.2-1.3.3-2.5.8-3.5 1.6-.1-1.1-.5-2.1-1.1-3-1.1-1.6-2.7-2.8-4.7-3.2-1.6-.3-3.3-.1-4.7.8s-2.4 2.2-2.7 3.8c-.6 2.7 1.2 5.4 3.9 6l.4-2c-1.7-.4-2.7-2-2.4-3.6.2-1.1.9-2 1.8-2.5.9-.6 2-.8 3.1-.5 1.4.3 2.6 1.1 3.4 2.3s1 2.6.7 4c-.4 1.8-1.5 3.3-3.1 4.3s-3.5 1.3-5.3.9h-.1-5-183.5-10.1-183.6-5-.1c-1.8.4-3.7.1-5.3-.9s-2.7-2.5-3.1-4.3c-.3-1.4-.1-2.8.7-4s2-2 3.4-2.3c1.1-.2 2.2 0 3.1.5.9.6 1.6 1.5 1.8 2.5.4 1.6-.7 3.3-2.4 3.6l.4 2c2.8-.6 4.5-3.3 3.9-6-.4-1.6-1.3-2.9-2.7-3.8s-3.1-1.2-4.7-.8c-2 .4-3.6 1.6-4.7 3.2-.6.9-1 2-1.1 3-1-.8-2.2-1.3-3.5-1.6-2.4-.5-4.8-.1-6.9 1.2-1.7 1.1-2.8 2.7-3.3 4.6-.4 1.9-.1 3.9 1 5.5.9 1.4 2.3 2.3 3.9 2.7.4.1.9.1 1.3.1 1.2 0 2.3-.3 3.3-1 2.4-1.5 3.1-4.6 1.6-7l-1.7 1.1c.9 1.4.5 3.3-.9 4.2-.9.6-2 .8-3.1.5-1.1-.2-2-.9-2.6-1.8-.8-1.2-1-2.6-.7-4s1.2-2.6 2.4-3.3c1.6-1 3.5-1.3 5.3-.9 1.7.4 3.3 1.4 4.3 2.8.6 2 2 3.7 3.8 4.9 1.5.9 3.2 1.4 4.9 1.4.6 0 1.2-.1 1.9-.2h4.8 183.7 10.1 183.7 4.8c.6.1 1.2.2 1.9.2 1.7 0 3.4-.5 4.9-1.4 1.8-1.2 3.2-2.9 3.8-4.9 1-1.4 2.5-2.4 4.3-2.8s3.7-.1 5.3.9c1.2.8 2.1 1.9 2.4 3.3s.1 2.8-.7 4c-.6.9-1.5 1.5-2.6 1.8-1.1.2-2.2 0-3.1-.5-1.4-.9-1.9-2.8-.9-4.2l-1.7-1.1c-1.5 2.3-.8 5.5 1.6 7 1 .6 2.2 1 3.3 1 .4 0 .9 0 1.3-.1 1.6-.3 3-1.3 3.9-2.7.8-1.7 1.2-3.6.7-5.5z" fill="url(#l)"/><path d="m215.5 589.1-.2.3-.3.5c-.1.3-.2.7-.4 1.1l-.2.6v.3.3c0 .7.2 1.3.7 1.7.1.1.2.2.2.4 0 0 0 .1-.1.1 0 0-.1 0-.2.1-.1 0-.1 0-.3-.1h-.3l-.3-.1c-.1 0-.2 0-.3-.1-.1 0-.2-.1-.3-.1-.4-.1-.6-.4-.6-.9v-.2-.1c.2-.8.5-1.6.9-2.3 0 0 .1-.1.1-.2.2-.4.4-.6.5-.7.1-.2.3-.4.4-.6s.3-.4.5-.4c0 0 .1.1.1.2.3-.1.2.1.1.2zm3.6.1-.2.3c-.1.1-.1.2-.1.3-.1.2-.2.5-.3.8-.3.7-.4 1.3-.4 1.7 0 .8.2 1.3.7 1.7.1.1.2.2.2.3l-.1.1s-.1.1-.2.1-.2 0-.3-.1l-.5-.1c-.2 0-.4-.1-.7-.3-.4-.2-.6-.5-.6-.9v-.2-.1c.1-.4.2-.8.3-1.1s.3-.7.5-1.1c.5-.7.8-1.3 1-1.5.1-.2.3-.4.5-.4 0 0 .1.1.1.2.2 0 .1.1.1.3z" fill="url(#m)"/><path d="m228.3 607.4h-.2-2.9-.1-.1l.2-.1c.1 0 .2-.1.2-.2 0-.2-.1-.4-.2-.6l-1.1-2.7c-.1-.2-.2-.2-.4-.2h-2.9c-.2 0-.3.1-.4.3l-1 2.7v.1.2c0 .3.2.5.6.6l.2.1h.1-.2-2.9-.1-.1l.2-.1c.5-.1.8-.2 1-.5s.3-.5.4-.6l3.6-9.1.1-.2s.1-.1.2-.1.1.1.2.3l3.8 9c.1.2.2.4.4.7.3.3.6.5 1.1.5zm-4.5-4.7-1.3-3.5c-.1-.2-.1-.2-.2-.3l-.1.1v.2l-1.2 3.5v.1c0 .1.1.1.2.1h2.6c-.1 0 0 0 0-.2z" fill="url(#n)"/><path d="m256.2 606.9c0 .1 0 .2-.1.3s-.3.2-.6.3l-.6.1h-.6l-1.1.1c-.1 0-.3 0-.6 0-1.3 0-2.5-.2-3.3-.6-.9-.4-1.5-.9-1.9-1.4-.4-.6-.7-1.1-.8-1.7s-.2-1.1-.2-1.4v-.2-.1-.2-.2c0-1.1.2-2 .6-2.7s.9-1.2 1.5-1.5c.6-.4 1.2-.6 1.8-.7s1.1-.2 1.6-.2h.3.1c.6 0 1.2 0 1.8.1.3 0 .6 0 .9.1.1 0 .3 0 .6.1l.5.1s.1 0 .3.1h.1c.1.1.2.2.2.4v.1.1l-.1 1.7c0 .2-.1.2-.1.3l-.1-.1-.1-.2c-.1-.6-.4-1-.9-1.4-.5-.3-1-.5-1.6-.6-.5-.1-1-.2-1.5-.2s-1.1.1-1.8.3-1.3.6-1.8 1.3-.9 1.6-.9 2.9v.4c0 .6.1 1.2.3 1.9s.7 1.4 1.4 2c.8.6 1.8.9 3.3.9h.2.2c.6 0 1.3-.1 1.9-.3s1-.7 1.2-1.4l.1-.2.1-.1s.1.1.1.3z" fill="url(#o)"/><path d="m265.1 607.5h-2.1-.9-.9-.6-.6-.6c-.1 0-.2 0-.2 0l.1-.1c.1 0 .3-.1.6-.3.2-.2.3-.7.3-1.4v-7.2c0-.5-.1-.8-.3-.9s-.4-.2-.7-.2c-.2 0-.2-.1-.3-.1l.1-.1h.2.7 1.1.2.2.2.1.3.4c.2 0 .3 0 .3.1l-.2.1-.3.1c-.2 0-.3.2-.4.3-.2.2-.2.4-.2.8v7.1c0 .3.1.7.3 1s.5.4 1.1.4h1.4c.7 0 1.2-.4 1.5-1.1l.1-.2c0-.1.1-.1.1-.1s.1.1.1.2v.5c0 .7-.4 1.1-1.1 1.1z" fill="url(#p)"/><path d="m274.6 606.4c0 .1 0 .3-.1.6 0 .3-.2.5-.7.5h-5.3c-.1 0-.1 0-.2 0 0 0 .1-.1.2-.1s.2 0 .4-.1.3-.3.3-.5v-8.7c0-.2-.1-.4-.3-.5h-.1c-.2-.1-.4-.1-.5-.1-.2-.1-.3-.1-.3-.1l.1-.1h.2 5.5l.1-.1h.2s.1 0 .1.1c0 0 0 .1-.1.3v.1l-.1.4v.6c0 .2 0 .2-.1.3 0 0-.1 0-.1-.1l-.1-.1c-.1-.3-.2-.5-.5-.7-.3-.1-.5-.2-.6-.2h-1.7c-.3 0-.4.1-.5.3v3.4s0 .1.1.3c0 .1.1.1.3.1h2.1.5l.2-.1.2-.2s.1-.1.2-.1v.1l-.1.3c-.1.3-.1.6-.1 1v.4c0 .2 0 .3-.1.3v-.1l-.1-.2c0-.4-.2-.6-.4-.7s-.4-.2-.6-.2h-1.6c-.2 0-.3.1-.3.4v3.7c0 .5.4.7 1.2.7h.2.4.6.2s.1 0 .2 0 .2-.1.3-.1c.4-.2.6-.5.8-.8l-.1-.3c0-.1.1-.1.1-.1s.1.1.1.3z" fill="url(#q)"/><path d="m286.8 607.4h-.2-2.9-.1-.1l.2-.1c.1 0 .2-.1.2-.2 0-.2-.1-.4-.2-.6l-1.1-2.7c-.1-.2-.2-.2-.4-.2h-2.9c-.2 0-.3.1-.4.3l-1 2.7v.1.2c0 .3.2.5.6.6l.2.1h.1-.2-2.9-.1-.1l.2-.1c.5-.1.8-.2 1-.5s.3-.5.4-.6l3.6-9.1.1-.2s.1-.1.2-.1.1.1.2.3l3.8 9c.1.2.2.4.4.7.3.3.6.5 1.1.5zm-4.5-4.7-1.3-3.5c-.1-.2-.1-.2-.2-.3l-.1.1v.2l-1.2 3.5v.1c0 .1.1.1.2.1h2.6s.1 0 0-.2z" fill="url(#r)"/><path d="m299.4 597.3c-.3 0-.5.1-.6.3-.2.2-.2.4-.2.8v9c0 .2-.1.3-.1.3s-.1 0-.2-.1l-.2-.2-8.3-8.9v7.5c0 .4.1.7.3.9s.5.3.8.3h.2.1-.1c-.5 0-1-.1-1.5-.1h-.6-.2c-.1 0-.2 0-.2 0h-.5-.2-.1l.2-.1c.2 0 .4-.1.6-.3s.4-.5.4-1.2v-8.8-.2c0-.1.1-.1.1-.1.1 0 .2.1.4.3l8.4 8.8v-7.6c0-.4-.1-.7-.4-.9-.3-.1-.5-.2-.7-.2l-.1-.1h.1.7.8c.4 0 .9 0 1.4-.1.1 0 .2 0 .2.1-.4.5-.4.5-.5.6z" fill="url(#s)"/><path d="m331.5 607.4h-.3-.8-.8-.6-.2c-.1 0-.2 0-.3 0h-.5c-.1 0-.2 0-.2 0h.1l.1-.1c.4-.2.7-.7.7-1.3v-4h-6.5v4c0 .8.4 1.3 1.1 1.3h.2.1-.1-.2-.3-.3c-.1 0-.1 0-.2 0h-.8-.6-.2c-.1 0-.2 0-.3 0h-.5-.1-.1l.1-.1c.1 0 .3-.1.5-.3s.3-.5.3-1v-7.6c0-.3-.1-.5-.2-.7-.1-.1-.2-.2-.5-.3l-.3-.1c-.2 0-.3-.1-.3-.1l.1-.1h.2.8.9.2.2.1.1.7s.3 0 .3.1h-.1c-.1.1-.2.1-.3.1s-.2.1-.4.2c-.2.2-.3.5-.3.9v2.9h6.5v-2.9c0-.4-.1-.8-.4-.9-.2-.1-.4-.2-.6-.3-.2 0-.3-.1-.3-.1l.1-.1h.2l.6.1h1c.5 0 1 0 1.4-.1.2 0 .3 0 .3.1h-.1l-.2.1c-.1 0-.3.1-.5.2s-.3.5-.3 1v7.5c0 .8.4 1.2 1.1 1.3h.2z" fill="url(#t)"/><path d="m345.3 604.2c-.3.8-.8 1.5-1.7 2.3-.5.4-1 .7-1.6.9-.7.2-1.4.3-2.2.3-1.7 0-3-.3-3.9-1-.9-.6-1.5-1.4-1.7-2.1-.1-.4-.2-.7-.3-1.1s-.1-.8-.1-1.1 0-.5 0-.7.1-.5.1-.8c.1-.6.4-1.1.7-1.7s.9-1.1 1.7-1.6c.4-.2.8-.4 1.3-.5s1.1-.2 1.7-.2h.1.3c.5 0 1.1.1 1.6.2.6.1 1.2.3 1.9.7.6.4 1.2.9 1.7 1.7.2.3.4.8.6 1.3.1.5.2 1 .2 1.6-.1.4-.2 1-.4 1.8zm-1.4-3.7c-.2-.5-.4-1-.8-1.4-.6-.7-1.3-1.2-2-1.4s-1.3-.3-1.8-.3c-.9 0-1.6.2-2.2.6s-1 .9-1.3 1.4c-.3.6-.5 1.1-.6 1.7l-.1.7v.7c0 .4.1.9.3 1.6s.6 1.4 1.3 2.1c.3.3.8.6 1.3.8s1.1.3 1.7.3 1.2-.1 1.6-.3c.5-.2.9-.5 1.2-.8.6-.7 1-1.3 1.2-2s.3-1.3.3-1.7c.2-.8.1-1.4-.1-2z" fill="url(#u)"/><path d="m362.1 607.5h-.2-.9-.8-.4-.2c-.1 0-.2 0-.2 0-.3 0-.4 0-.5 0s-.2 0-.2 0l.3-.1c.1 0 .2-.1.3-.2s.2-.3.2-.6v-.4l-.7-6.6-4 7.7c-.1.1-.2.2-.2.2s-.1 0-.2-.1l-.1-.1-4-7.6-.6 6.6v.4c0 .1.1.2.1.3.1.2.3.3.6.4.1 0 .2.1.2.1h-.2c-.4 0-.9-.1-1.3-.1h-.5c-.2 0-.3 0-.4 0h-.4-.2-.1l.3-.1c.1 0 .3-.1.4-.2.2-.1.3-.4.4-.9l1.1-9.1v-.2l.1-.1c.1 0 .2.1.3.3l4.6 8.6 4.4-8.7c.1-.2.2-.3.2-.3s.1.1.1.2v.3l1 8.9c0 .2.1.5.3.8l.4.4c.2.1.4.1.7.1l.2.1z" fill="url(#v)"/><path d="m370.3 606.4c0 .1 0 .3-.1.6 0 .3-.2.5-.7.5h-5.3c-.1 0-.1 0-.2 0 0 0 .1-.1.2-.1s.2 0 .4-.1.3-.3.3-.5v-8.7c0-.2-.1-.4-.3-.5h-.1c-.2-.1-.4-.1-.5-.1-.2-.1-.3-.1-.3-.1l.1-.1h.2 5.5l.1-.1h.2s.1 0 .1.1c0 0 0 .1-.1.3v.1l-.1.4v.6c0 .2 0 .2-.1.3 0 0-.1 0-.1-.1l-.1-.1c-.1-.3-.2-.5-.5-.7-.3-.1-.5-.2-.6-.2h-1.7c-.3 0-.4.1-.5.3v3.4s0 .1.1.3c0 .1.1.1.3.1h2.1.5l.2-.1.2-.2s.1-.1.2-.1v.1l-.1.3c-.1.3-.1.6-.1 1v.4c0 .2 0 .3-.1.3v-.1l-.1-.2c0-.4-.2-.6-.4-.7s-.4-.2-.6-.2h-1.7c-.2 0-.3.1-.3.4v3.7c0 .5.4.7 1.2.7h.2.4.6.2s.1 0 .2 0 .2-.1.3-.1c.4-.2.6-.5.7-.9v-.2c0-.1.1-.1.1-.1s.1.1.1.4z" fill="url(#w)"/><path d="m394.3 607.4h-.2l-.7-.1h-.8-1.1-.6c-.2 0-.3 0-.3-.1l.3-.1c.2 0 .3-.1.5-.3.2-.1.3-.4.3-.8v-8.2c0-.3-.1-.5-.3-.6l-.3-.1h-.2c-.2 0-.3-.1-.3-.1l.1-.1h.2.6 1c.5 0 .9 0 1.2-.1h.2.1-.1c-.1.1-.1.1-.2.2-.5.1-.7.3-.7.8v8.2c0 .2.1.4.2.6s.4.3.9.4c.1.3.2.4.2.4z" fill="url(#x)"/><path d="m401.8 607.1c-.8.4-1.7.6-2.6.6-.2 0-.5 0-.9-.1l-.4-.1-.3-.1c-.2-.1-.4-.2-.4-.4v-1.6-.2c0-.1 0-.1.1-.1v.1l.1.2c0 .3.1.6.3 1.1.1.2.3.4.6.5s.6.2 1 .2c.7 0 1.3-.1 1.8-.4.5-.2.7-.8.7-1.7 0-.8-.8-1.7-2.4-2.9-1.2-1-1.9-2.2-1.9-3.3 0-.4.2-.8.6-1.3.4-.4 1.2-.7 2.5-.7.6 0 1.1.1 1.5.2.1 0 .2 0 .3.1l.1.2v1.4c0 .1-.1.2-.1.2l-.1-.1v-.1c0-.5-.3-.8-.7-1s-.8-.3-1.1-.3c-.8 0-1.4.2-1.7.6s-.4.7-.4 1c0 .8.8 1.6 2.3 2.6.4.2.9.5 1.4 1.1s.8 1.3.8 2.3c.1.9-.3 1.7-1.1 2z" fill="url(#y)"/><path d="m432.7 607.4h-.2-2.9-.1-.1l.2-.1c.1 0 .2-.1.2-.2 0-.2-.1-.4-.2-.6l-1.1-2.7c-.1-.2-.2-.2-.4-.2h-2.9c-.2 0-.3.1-.4.3l-1 2.7v.1.2c0 .3.2.5.6.6l.2.1h.1-.2-2.9-.1-.1l.2-.1c.5-.1.8-.2 1-.5s.3-.5.4-.6l3.6-9.1.1-.2s.1-.1.2-.1.1.1.2.3l3.8 9c.1.2.2.4.4.7.3.3.6.5 1.1.5zm-4.4-4.7-1.3-3.5c-.1-.2-.1-.2-.2-.3l-.1.1v.2l-1.2 3.5v.1c0 .1.1.1.2.1h2.6c-.1 0 0 0 0-.2z" fill="url(#z)"/><path d="m463.1 607.4h-.3-.8-.8-.6-.2c-.1 0-.2 0-.3 0h-.5c-.1 0-.2 0-.2 0h.1l.1-.1c.4-.2.7-.7.7-1.3v-4h-6.5v4c0 .8.4 1.3 1.1 1.3h.2.1-.1-.2-.3-.3c-.1 0-.1 0-.2 0h-.8-.6-.2c-.1 0-.2 0-.3 0h-.5-.1-.1l.1-.1c.1 0 .3-.1.5-.3s.3-.5.3-1v-7.6c0-.3-.1-.5-.2-.7-.1-.1-.2-.2-.5-.3l-.3-.1c-.2 0-.3-.1-.3-.1l.1-.1h.2.8.9.2.2.1.1.7s.3 0 .3.1h-.1c-.1.1-.2.1-.3.1s-.2.1-.4.2c-.2.2-.3.5-.3.9v2.9h6.5v-2.9c0-.4-.1-.8-.4-.9-.2-.1-.4-.2-.6-.3-.2 0-.3-.1-.3-.1l.1-.1h.2l.6.1h1c.5 0 1 0 1.4-.1.2 0 .3 0 .3.1h-.1l-.2.1c-.1 0-.3.1-.5.2s-.3.5-.3 1v7.5c0 .8.4 1.2 1.1 1.3h.2z" fill="url(#A)"/><path d="m475.3 607.4h-.2-2.9-.1-.1l.2-.1c.1 0 .2-.1.2-.2 0-.2-.1-.4-.2-.6l-1.1-2.7c-.1-.2-.2-.2-.4-.2h-2.7c-.2 0-.3.1-.4.3l-1 2.7v.1.2c0 .3.2.5.6.6l.2.1h.1-.2-2.9-.1-.1l.2-.1c.5-.1.8-.2 1-.5s.3-.5.4-.6l3.6-9.1.1-.2s.1-.1.2-.1.1.1.2.3l3.8 9c.1.2.2.4.4.7.3.3.6.5 1.1.5zm-4.4-4.7-1.3-3.5c-.1-.2-.1-.2-.2-.3l-.1.1v.2l-1.2 3.5v.1c0 .1.1.1.2.1h2.6c-.1 0 0 0 0-.2z" fill="url(#B)"/><path d="m483 601.7c-.5.5-1.1.8-1.7.9s-1.1.2-1.4.2c-.2 0-.3-.1-.3-.1l.1-.1h.1c1.1-.1 1.8-.5 2.2-1.1s.6-1.3.6-2c0-.5-.1-.9-.4-1.2s-.6-.5-1.1-.6c-.4-.1-.8-.1-1.1-.1h-.4-.2c-.3 0-.4.1-.4.3v8.3c0 .8.4 1.2 1.2 1.2h.1.1s-.1 0-.2 0h-.9-.8-.6-.3c-.1 0-.2 0-.3 0h-.5-.3.1l.2-.1c.6-.1.9-.5.9-1.2v-8.2c0-.3-.1-.5-.4-.6s-.5-.1-.6-.1h-.2-.1l.1-.1h.2.7 1.2.8.9c.8 0 1.5.2 2.3.5.4.2.7.4.9.7s.3.7.3 1.2c0 .9-.2 1.7-.8 2.2z" fill="url(#C)"/><path d="m492.8 601.7c-.5.5-1.1.8-1.7.9s-1.1.2-1.4.2c-.2 0-.3-.1-.3-.1l.1-.1h.1c1.1-.1 1.8-.5 2.2-1.1s.6-1.3.6-2c0-.5-.1-.9-.4-1.2s-.6-.5-1.1-.6c-.4-.1-.8-.1-1.1-.1h-.4-.2c-.3 0-.4.1-.4.3v8.3c0 .8.4 1.2 1.2 1.2h.1.1s-.1 0-.2 0h-.9-.8-.6-.3c-.1 0-.2 0-.3 0h-.5-.3.1l.2-.1c.6-.1.9-.5.9-1.2v-8.2c0-.3-.1-.5-.4-.6s-.5-.1-.6-.1h-.2-.1l.1-.1h.2.7 1.2.8.9c.8 0 1.5.2 2.3.5.4.2.7.4.9.7s.3.7.3 1.2c0 .9-.2 1.7-.8 2.2z" fill="url(#D)"/><path d="m504.8 597.3c-.4.1-.7.2-1 .5s-.5.5-.6.6l-2.3 3.6c-.2.3-.3.7-.4 1l-.1.8v2.6c0 .1.1.3.2.5s.4.3.9.4h.1.1-.2c-.3 0-.8-.1-1.4-.1h-.6-.2c-.1 0-.2 0-.3 0h-.6-.2-.1.1.1c.2 0 .3-.1.4-.2.2-.1.3-.4.3-.7v-2.5c0-.4-.1-.8-.2-1.1-.2-.4-.3-.6-.4-.7l-2.3-3.5c-.3-.4-.6-.7-.9-.9s-.5-.3-.6-.3c-.2 0-.2-.1-.3-.1l.1-.1h.2.6.7c.6 0 1 0 1.3-.1h.1.1s-.1.1-.2.1c-.2 0-.3.1-.3.3 0 .1 0 .2.1.5l.2.4 2.4 3.8.1.1.1.1s.1-.1.1-.2l2.3-3.8.2-.3c.1-.1.1-.2.1-.4s-.1-.3-.2-.4-.2-.1-.2-.2l.1-.1h.1.6.7c.5 0 .8 0 1.1-.1h.1v.1z" fill="url(#E)"/><path d="m535.2 607.4h-.3-.8-.8-.6-.2c-.1 0-.2 0-.3 0h-.5c-.1 0-.2 0-.2 0h.1l.1-.1c.4-.2.7-.7.7-1.3v-4h-6.4v4c0 .8.4 1.3 1.1 1.3h.2.1-.1-.2-.3-.3c-.1 0-.1 0-.2 0h-.8-.5-.2c-.1 0-.2 0-.3 0h-.5-.1-.1l.1-.1c.1 0 .3-.1.5-.3s.3-.5.3-1v-7.6c0-.3-.1-.5-.2-.7-.1-.1-.2-.2-.5-.3l-.3-.1c-.2 0-.3-.1-.3-.1l.1-.1h.2.8.9.2.2.1.1.7s.3 0 .3.1h-.1c-.1.1-.2.1-.3.1s-.2.1-.4.2c-.2.2-.3.5-.3.9v2.9h6.5v-2.9c0-.4-.1-.8-.4-.9-.2-.1-.4-.2-.6-.3-.2 0-.3-.1-.3-.1l.1-.1h.2l.6.1h1c.5 0 1 0 1.4-.1.2 0 .3 0 .3.1h-.1l-.2.1c-.1 0-.3.1-.5.2s-.3.5-.3 1v7.5c0 .8.4 1.2 1.1 1.3h.2z" fill="url(#F)"/><path d="m549 604.2c-.3.8-.8 1.5-1.7 2.3-.5.4-1 .7-1.6.9-.7.2-1.4.3-2.2.3-1.7 0-3-.3-3.9-1-.9-.6-1.5-1.4-1.7-2.1-.1-.4-.2-.7-.3-1.1s-.1-.8-.1-1.1 0-.5 0-.7.1-.5.1-.8c.1-.6.4-1.1.7-1.7s.9-1.1 1.7-1.6c.4-.2.8-.4 1.3-.5s1.1-.2 1.7-.2h.1.3c.5 0 1.1.1 1.6.2.6.1 1.2.3 1.9.7.6.4 1.2.9 1.7 1.7.2.3.4.8.6 1.3.1.5.2 1 .2 1.6-.1.4-.2 1-.4 1.8zm-1.4-3.7c-.2-.5-.4-1-.8-1.4-.6-.7-1.3-1.2-2-1.4s-1.3-.3-1.8-.3c-.9 0-1.6.2-2.2.6s-1 .9-1.3 1.4c-.3.6-.5 1.1-.6 1.7l-.1.7v.7c0 .4.1.9.3 1.6s.6 1.4 1.3 2.1c.3.3.8.6 1.3.8s1.1.3 1.7.3 1.2-.1 1.6-.3c.5-.2.9-.5 1.2-.8.6-.7 1-1.3 1.2-2s.3-1.3.3-1.7c.2-.8.1-1.4-.1-2z" fill="url(#G)"/><path d="m565.8 607.5h-.2-.9-.8-.4-.2c-.1 0-.2 0-.2 0-.3 0-.4 0-.5 0s-.2 0-.2 0l.3-.1c.1 0 .2-.1.3-.2s.2-.3.2-.6v-.4l-.7-6.6-4 7.7c-.1.1-.2.2-.2.2s-.1 0-.2-.1l-.1-.1-4-7.6-.6 6.6v.4c0 .1.1.2.1.3.1.2.3.3.6.4.1 0 .2.1.2.1h-.2c-.4 0-.9-.1-1.3-.1h-.5c-.2 0-.3 0-.4 0h-.4-.2-.1l.3-.1c.1 0 .3-.1.4-.2.2-.1.3-.4.4-.9l1.1-9.1v-.2l.1-.1c.1 0 .2.1.3.3l4.6 8.6 4.4-8.7c.1-.2.2-.3.2-.3s.1.1.1.2v.3l1 8.9c0 .2.1.5.3.8l.4.4c.2.1.4.1.7.1l.2.1z" fill="url(#H)"/><path d="m574 606.4c0 .1 0 .3-.1.6 0 .3-.2.5-.7.5h-5.3c-.1 0-.1 0-.2 0 0 0 .1-.1.2-.1s.2 0 .4-.1.3-.3.3-.5v-8.7c0-.2-.1-.4-.3-.5h-.1c-.2-.1-.4-.1-.5-.1-.2-.1-.3-.1-.3-.1l.1-.1h.2 5.5l.1-.1h.2s.1 0 .1.1c0 0 0 .1-.1.3v.1l-.1.4v.6c0 .2 0 .2-.1.3 0 0-.1 0-.1-.1l-.1-.1c-.1-.3-.2-.5-.5-.7-.3-.1-.5-.2-.6-.2h-1.7c-.3 0-.4.1-.5.3v3.4s0 .1.1.3c0 .1.1.1.3.1h2.1.5l.2-.1.2-.2s.1-.1.2-.1v.1l-.1.3c-.1.3-.1.6-.1 1v.4c0 .2 0 .3-.1.3v-.1l-.1-.2c0-.4-.2-.6-.4-.7s-.4-.2-.6-.2h-1.7c-.2 0-.3.1-.3.4v3.7c0 .5.4.7 1.2.7h.2.4.6.2.2c.1 0 .2-.1.3-.1.4-.2.6-.5.7-.9v-.2c0-.1.1-.1.1-.1s.1.1.1.4z" fill="url(#I)"/><path d="m578.8 590.2c-.1.8-.4 1.5-.8 2.3s-.8 1.3-1 1.6c-.1.2-.3.4-.5.4 0 0-.1-.1-.1-.2s0-.2.1-.3l.2-.3.1-.1.2-.4c.2-.3.3-.7.4-1.1.1-.5.2-.9.2-1.2 0-.8-.2-1.3-.7-1.7-.1-.1-.2-.2-.2-.4l.1-.1s.1-.1.2-.1l.3.1h.3l.3.1c.3 0 .5.1.6.2.1 0 .2 0 .4.1s.2.3.2.6c-.3.2-.3.4-.3.5zm3.5 0c-.1.5-.3 1.1-.5 1.7-.2.5-.5 1-.8 1.4l-.5.7c-.1.2-.3.4-.5.4 0 0-.1-.1-.1-.2s0-.2.1-.3l.2-.3s.2-.3.4-.9.4-1.2.4-1.8c0-.8-.2-1.3-.7-1.7-.1-.1-.2-.2-.2-.4l.1-.1s.1-.1.2-.1l.3.1h.3l.3.1c.3 0 .5.1.6.2.1 0 .2 0 .4.1s.2.3.2.6c-.2.2-.2.4-.2.5z" fill="url(#J)"/><g opacity=".9"><path d="m242.4 578.4v-10.2h-12.4v10.2h-4.8v-25.2h4.8v10.6h12.4v-10.6h4.7v25.2z" fill="url(#K)"/><path d="m268.9 569.5c0 5.1-3.5 9.3-9.3 9.3s-9.2-4.1-9.2-9.3c0-5.1 3.5-9.3 9.2-9.3 5.6.1 9.3 4.2 9.3 9.3zm-14.1 0c0 2.7 1.6 5.2 4.8 5.2s4.8-2.5 4.8-5.2-1.9-5.3-4.8-5.3c-3.1.1-4.8 2.6-4.8 5.3z" fill="url(#L)"/><path d="m283.7 578.4v-9.5c0-2.3-1.2-4.5-3.6-4.5s-3.8 2.1-3.8 4.5v9.5h-4.4v-17.8h4.1l.3 2.2c.9-1.8 3-2.4 4.7-2.4 2.1 0 4.2.9 5.3 3.3 1.6-2.5 3.6-3.2 5.9-3.2 5 0 7.5 3.1 7.5 8.4v9.6h-4.4v-9.6c0-2.3-1-4.3-3.3-4.3-2.4 0-3.9 2.1-3.9 4.4v9.5h-4.4z" fill="url(#M)"/><path d="m307.9 571.1c.3 2.2 2.2 3.8 5.3 3.8 1.6 0 3.7-.6 4.8-1.7l2.8 2.8c-1.9 1.9-4.9 2.9-7.6 2.9-6.1 0-9.8-3.8-9.8-9.5 0-5.4 3.7-9.3 9.4-9.3 5.9 0 9.6 3.7 9 11zm9.6-3.7c-.3-2.3-2.1-3.5-4.6-3.5-2.4 0-4.3 1.2-5 3.5z" fill="url(#N)"/><path d="m355 575.2c-2.6 2.6-5.9 3.7-9.6 3.7-9.4 0-13.3-6.4-13.4-13 0-6.6 4.2-13.3 13.4-13.3 3.4 0 6.7 1.3 9.3 3.9l-3.2 3.1c-1.7-1.6-3.9-2.4-6.1-2.4-6.1 0-8.7 4.5-8.7 8.7s2.4 8.5 8.7 8.5c2.2 0 4.7-.9 6.3-2.6z" fill="url(#O)"/><path d="m370.6 560.6h4.2v17.7h-4.1l-.2-2.6c-1 2.1-3.8 3.1-5.8 3.1-5.3 0-9.1-3.2-9.1-9.4 0-6.1 4.1-9.3 9.3-9.3 2.4 0 4.6 1.1 5.7 2.9zm-10.6 8.9c0 3.4 2.3 5.4 5.3 5.4 6.9 0 6.9-10.8 0-10.8-3 0-5.3 2-5.3 5.4z" fill="url(#P)"/><path d="m382.6 560.6.3 2.1c1.4-2.2 3.2-2.5 5-2.5s3.6.7 4.6 1.7l-2 3.8c-.9-.8-1.7-1.2-3.2-1.2-2.3 0-4.4 1.2-4.4 4.5v9.4h-4.4v-17.7h4.1z" fill="url(#Q)"/><path d="m397.9 571.1c.3 2.2 2.2 3.8 5.3 3.8 1.6 0 3.7-.6 4.8-1.7l2.8 2.8c-1.9 1.9-4.9 2.9-7.6 2.9-6.1 0-9.8-3.8-9.8-9.5 0-5.4 3.7-9.3 9.4-9.3 5.9 0 9.6 3.7 9 11zm9.6-3.7c-.3-2.3-2.1-3.5-4.6-3.5-2.4 0-4.3 1.2-5 3.5z" fill="url(#R)"/><path d="m434.6 570.9h-7.1v7.4h-4.8v-25.2h11.9c12.3 0 12.4 17.8 0 17.8zm-7.1-4.3h7.1c6.1 0 6-8.9 0-8.9h-7.1z" fill="url(#S)"/><path d="m450.1 560.6.3 2.1c1.4-2.2 3.2-2.5 5-2.5s3.6.7 4.6 1.7l-2 3.8c-.9-.8-1.7-1.2-3.2-1.2-2.3 0-4.4 1.2-4.4 4.5v9.4h-4.4v-17.7h4.1z" fill="url(#T)"/><path d="m479.3 569.5c0 5.1-3.5 9.3-9.3 9.3s-9.2-4.1-9.2-9.3c0-5.1 3.5-9.3 9.2-9.3s9.3 4.2 9.3 9.3zm-14.1 0c0 2.7 1.6 5.2 4.8 5.2s4.8-2.5 4.8-5.2-1.9-5.3-4.8-5.3c-3.2.1-4.8 2.6-4.8 5.3z" fill="url(#U)"/><path d="m500.7 553.2v25.2h-4.1l-.3-2.4c-1.4 2.1-3.6 2.8-5.7 2.8-5.2 0-9.1-3.5-9.1-9.3 0-6.1 3.9-9.3 9-9.3 1.9 0 4.8 1 5.8 2.8v-9.8zm-14.9 16.3c0 3.1 2.2 5.2 5 5.2s5.1-2 5.1-5.2c0-3.1-2.4-5.2-5.1-5.2s-5 2-5 5.2z" fill="url(#V)"/><path d="m508.6 560.6v9.3c0 2.7 1.5 4.8 4.3 4.8 2.7 0 4.5-2.3 4.5-5v-9.1h4.4v17.8h-3.9l-.3-2.4c-1.8 1.8-3.5 2.7-6 2.7-4.2 0-7.3-3.2-7.3-8.7v-9.3h4.3z" fill="url(#W)"/><path d="m540.9 576.1c-2.1 2-4.2 2.8-6.8 2.8-5.1 0-9.4-3.1-9.4-9.4s4.3-9.4 9.4-9.4c2.5 0 4.5.7 6.4 2.6l-2.8 2.9c-1-.9-2.3-1.4-3.6-1.4-3 0-5.1 2.2-5.1 5.3 0 3.4 2.3 5.2 5 5.2 1.4 0 2.8-.4 3.9-1.5z" fill="url(#X)"/><path d="m549.1 555.6v5h4.9v3.8h-5v7.7c0 1.7.9 2.5 2.3 2.5.7 0 1.5-.2 2.1-.5l1.2 3.7c-1.3.5-2.3.7-3.6.8-3.9.1-6.4-2.1-6.4-6.5v-7.7h-3.3v-3.8h3.3v-4.6z" fill="url(#Y)"/><path d="m568.8 565.3c-1.3-1.2-2.7-1.6-4.4-1.6-2.1 0-3.2.6-3.2 1.8s1 1.8 3.3 1.9c3.3.2 7.6 1 7.6 5.7 0 3.1-2.6 5.8-7.6 5.8-2.8 0-5.6-.5-8.2-3.2l2.2-3.1c1.3 1.4 4.1 2.4 6.1 2.5 1.7 0 3.2-.8 3.2-2.1 0-1.2-1-1.7-3.5-1.9-3.3-.3-7.3-1.5-7.3-5.5 0-4.1 4.2-5.5 7.5-5.5 2.8 0 4.9.5 6.9 2.3z" fill="url(#Z)"/></g></svg>